<svg width="305" height="305" viewBox="0 0 305 305" fill="none" xmlns="http://www.w3.org/2000/svg">
<path d="M3.00002 234.566C3.00002 222.577 12.7516 212.812 24.725 212.812C24.9471 212.812 25.194 212.812 25.4162 212.837L27.6133 213.035C34.427 213.95 39.636 212.861 43.0922 209.747C46.3756 206.805 48.0298 202.084 48.0298 195.706L48.0051 194.272L48.0298 192.567C48.0298 186.189 46.3756 181.467 43.0922 178.526C39.636 175.436 34.427 174.323 27.6133 175.237L25.4162 175.436C25.194 175.436 24.9471 175.46 24.725 175.46C12.7516 175.46 3.00003 165.695 3.00003 153.706C3.00003 153.508 3.00003 153.051 3.00003 152.853L3.00003 152.248C3.00003 152.198 3.00003 152.124 3.00003 151.901C3.00003 139.912 12.7516 130.148 24.725 130.148C24.9471 130.148 25.194 130.148 25.4162 130.172L27.6133 130.37C34.427 131.285 39.636 130.197 43.0922 127.082C46.3756 124.141 48.0298 119.419 48.0298 113.041L48.0298 111.477L48.0298 109.878C48.0298 103.5 46.3756 98.7783 43.0922 95.8366C39.636 92.7466 34.427 91.6335 27.6133 92.5482L25.4162 92.7466C25.1693 92.7466 24.9472 92.7707 24.725 92.7707C12.7516 92.7707 3.00003 83.0061 3.00003 71.0168C3.00003 59.0275 12.7516 49.2637 24.725 49.2637C36.1799 49.2637 45.6844 58.0887 46.4744 69.3858L46.4497 71.5856C46.2522 78.4826 47.9309 83.5257 51.3624 86.6405C54.8186 89.7305 60.0031 90.8428 66.8415 89.9281L68.9399 89.7554C69.2115 89.7307 69.4829 89.7305 69.7545 89.7305C81.7278 89.7305 91.4792 99.4951 91.4792 111.484C91.4792 123.474 81.7278 133.238 69.7545 133.238C69.4829 133.238 69.2115 133.238 68.9399 133.213L66.8415 133.04C60.0278 132.125 54.8186 133.214 51.3624 136.328C47.9062 139.418 46.2769 144.51 46.4497 151.382L46.4744 152.149L46.4744 152.837L46.4744 153.607L46.4744 154.325C46.2769 161.221 47.9555 166.264 51.3871 169.379C54.8433 172.469 60.0278 173.581 66.8662 172.666L68.9646 172.494C69.2361 172.494 69.5076 172.469 69.7792 172.469C81.7525 172.469 91.5039 182.233 91.5039 194.223C91.5039 206.212 81.7525 215.976 69.7792 215.976C69.5076 215.976 69.2361 215.976 68.9646 215.952L66.8662 215.779C60.0525 214.864 54.8433 215.976 51.3871 219.066C47.9309 222.157 46.2769 227.249 46.4744 234.121L46.4003 236.272C45.5857 247.545 36.1799 256.443 24.725 256.443C12.7516 256.32 3.00002 246.58 3.00002 234.566ZM29.6623 214.815L27.4406 214.691C26.4037 214.543 25.5396 214.493 24.7496 214.493C13.6897 214.493 4.70345 223.492 4.70345 234.566C4.70345 245.641 13.6897 254.639 24.7496 254.639C35.8095 254.639 44.7956 245.641 44.7956 234.566C44.7956 234.468 44.7956 234.229 44.7956 234.152L44.7956 231.822C44.9931 225.518 46.8447 220.772 50.2762 217.682C53.7324 214.592 58.6699 213.257 64.9652 213.752L67.0882 213.949C68.1251 214.098 68.9645 214.147 69.7792 214.147C80.8391 214.147 89.8253 205.149 89.8253 194.075C89.8253 183 80.8391 174.002 69.7792 174.002C68.9645 174.002 68.1004 174.076 67.0882 174.199L64.9652 174.397C58.6699 174.891 53.7324 173.581 50.2762 170.466C46.82 167.376 44.9931 162.605 44.7956 156.277L44.7709 153.855C44.7709 153.717 44.7709 153.335 44.7709 153.088L44.7709 152.714L44.7709 152.322C44.7709 152.198 44.7709 151.617 44.7709 151.556L44.7956 149.084C44.9931 142.78 46.8447 138.034 50.2762 134.944C53.7324 131.854 58.6699 130.518 64.9652 131.013L67.0882 131.211C68.1251 131.36 68.9645 131.409 69.7792 131.409C80.8391 131.409 89.8254 122.41 89.8254 111.336C89.8254 100.261 80.8391 91.2627 69.7792 91.2627C68.9645 91.2627 68.1004 91.3375 67.0882 91.4611L64.9652 91.6587C58.6699 92.1531 53.7324 90.8431 50.2762 87.7283C46.82 84.6383 44.9931 79.8672 44.7956 73.5388L44.7709 71.1164C44.7709 71.0175 44.7709 70.9677 44.7709 70.8688C44.771 59.7941 35.8095 50.771 24.7496 50.771C13.6897 50.771 4.70346 59.7694 4.70346 70.8441C4.70346 81.9187 13.6897 90.9172 24.7496 90.9172C25.5643 90.9172 26.4037 90.8431 27.4406 90.7195L29.6623 90.497C35.9082 90.0273 40.7964 91.3621 44.2279 94.4274C47.6842 97.5174 49.511 102.289 49.7085 108.617L49.7085 111.039L49.7085 111.558L49.7085 113.981C49.511 120.309 47.6842 125.08 44.2279 128.17C40.7964 131.26 35.9082 132.57 29.6623 132.101L27.4406 131.878C26.4037 131.73 25.5396 131.68 24.7496 131.68C13.6897 131.68 4.70346 140.679 4.70346 151.754C4.70346 151.927 4.70346 152.135 4.70346 152.248L4.70346 152.627L4.70346 153.077C4.70346 153.25 4.70346 153.385 4.70346 153.558C4.70346 164.633 13.6897 173.63 24.7496 173.63C25.5643 173.63 26.4284 173.556 27.4406 173.433L29.6623 173.21C35.9082 172.741 40.7964 174.076 44.2279 177.141C47.6842 180.231 49.511 185.002 49.7085 191.33L49.7085 193.753C49.7085 193.906 49.7085 194.193 49.7085 194.272L49.7085 196.695C49.511 203.023 47.6842 207.794 44.2279 210.884C40.7964 213.974 35.9082 215.284 29.6623 214.815Z" fill="#5ED9D1" stroke="#5ED9D1" stroke-width="4.53957"/>
<path d="M302.706 234.566C302.706 222.577 292.955 212.812 280.981 212.812C280.759 212.812 280.512 212.812 280.29 212.837L278.093 213.035C271.279 213.95 266.07 212.861 262.614 209.747C259.331 206.805 257.676 202.084 257.676 195.706L257.701 194.272L257.676 192.567C257.676 186.189 259.331 181.467 262.614 178.526C266.07 175.436 271.279 174.323 278.093 175.237L280.29 175.436C280.512 175.436 280.759 175.46 280.981 175.46C292.955 175.46 302.706 165.695 302.706 153.706C302.706 153.508 302.706 153.051 302.706 152.853L302.706 152.248C302.706 152.198 302.706 152.124 302.706 151.901C302.706 139.912 292.955 130.148 280.981 130.148C280.759 130.148 280.512 130.148 280.29 130.172L278.093 130.37C271.279 131.285 266.07 130.197 262.614 127.082C259.331 124.141 257.676 119.419 257.676 113.041L257.676 111.477L257.676 109.878C257.676 103.5 259.331 98.7783 262.614 95.8366C266.07 92.7466 271.279 91.6335 278.093 92.5482L280.29 92.7466C280.537 92.7466 280.759 92.7707 280.981 92.7707C292.955 92.7707 302.706 83.0061 302.706 71.0168C302.706 59.0275 292.955 49.2637 280.981 49.2637C269.526 49.2637 260.022 58.0887 259.232 69.3858L259.256 71.5856C259.454 78.4826 257.775 83.5257 254.344 86.6405C250.888 89.7305 245.703 90.8428 238.865 89.9281L236.766 89.7554C236.495 89.7307 236.223 89.7305 235.952 89.7305C223.978 89.7305 214.227 99.4951 214.227 111.484C214.227 123.474 223.978 133.238 235.952 133.238C236.223 133.238 236.495 133.238 236.766 133.213L238.865 133.04C245.678 132.125 250.888 133.214 254.344 136.328C257.8 139.418 259.429 144.51 259.256 151.382L259.232 152.149L259.232 152.837L259.232 153.607L259.232 154.325C259.429 161.221 257.751 166.264 254.319 169.379C250.863 172.469 245.678 173.581 238.84 172.666L236.742 172.494C236.47 172.494 236.199 172.469 235.927 172.469C223.954 172.469 214.202 182.233 214.202 194.223C214.202 206.212 223.954 215.976 235.927 215.976C236.199 215.976 236.47 215.976 236.742 215.952L238.84 215.779C245.654 214.864 250.863 215.976 254.319 219.066C257.775 222.157 259.429 227.249 259.232 234.121L259.306 236.272C260.12 247.545 269.526 256.443 280.981 256.443C292.955 256.32 302.706 246.58 302.706 234.566ZM276.044 214.815L278.266 214.691C279.302 214.543 280.167 214.493 280.957 214.493C292.016 214.493 301.003 223.492 301.003 234.566C301.003 245.641 292.016 254.639 280.957 254.639C269.897 254.639 260.911 245.641 260.911 234.566C260.911 234.468 260.911 234.229 260.911 234.152L260.911 231.822C260.713 225.518 258.861 220.772 255.43 217.682C251.974 214.592 247.036 213.257 240.741 213.752L238.618 213.949C237.581 214.098 236.742 214.147 235.927 214.147C224.867 214.147 215.881 205.149 215.881 194.075C215.881 183 224.867 174.002 235.927 174.002C236.742 174.002 237.606 174.076 238.618 174.199L240.741 174.397C247.036 174.891 251.974 173.581 255.43 170.466C258.886 167.376 260.713 162.605 260.911 156.277L260.935 153.855C260.935 153.717 260.935 153.335 260.935 153.088L260.935 152.714L260.935 152.322C260.935 152.198 260.935 151.617 260.935 151.556L260.911 149.084C260.713 142.78 258.861 138.034 255.43 134.944C251.974 131.854 247.036 130.518 240.741 131.013L238.618 131.211C237.581 131.36 236.742 131.409 235.927 131.409C224.867 131.409 215.881 122.41 215.881 111.336C215.881 100.261 224.867 91.2627 235.927 91.2627C236.742 91.2627 237.606 91.3375 238.618 91.4611L240.741 91.6587C247.036 92.1531 251.974 90.8431 255.43 87.7283C258.886 84.6383 260.713 79.8672 260.911 73.5388L260.935 71.1164C260.935 71.0175 260.935 70.9677 260.935 70.8688C260.935 59.7941 269.897 50.771 280.957 50.771C292.016 50.771 301.003 59.7694 301.003 70.8441C301.003 81.9187 292.016 90.9172 280.957 90.9172C280.142 90.9172 279.302 90.8431 278.266 90.7195L276.044 90.497C269.798 90.0273 264.91 91.3621 261.478 94.4274C258.022 97.5174 256.195 102.289 255.998 108.617L255.998 111.039L255.998 111.558L255.998 113.981C256.195 120.309 258.022 125.08 261.478 128.17C264.91 131.26 269.798 132.57 276.044 132.101L278.266 131.878C279.302 131.73 280.167 131.68 280.957 131.68C292.016 131.68 301.003 140.679 301.003 151.754C301.003 151.927 301.003 152.135 301.003 152.248L301.003 152.627L301.003 153.077C301.003 153.25 301.003 153.385 301.003 153.558C301.003 164.633 292.016 173.63 280.957 173.63C280.142 173.63 279.278 173.556 278.266 173.433L276.044 173.21C269.798 172.741 264.91 174.076 261.478 177.141C258.022 180.231 256.195 185.002 255.998 191.33L255.998 193.753C255.998 193.906 255.998 194.193 255.998 194.272L255.998 196.695C256.195 203.023 258.022 207.794 261.478 210.884C264.91 213.974 269.798 215.284 276.044 214.815Z" fill="#FFC78F" stroke="#FFC78F" stroke-width="4.53957"/>
<path d="M234.565 302.707C222.576 302.707 212.812 292.955 212.812 280.982C212.812 280.759 212.811 280.513 212.836 280.29L213.034 278.093C213.949 271.28 212.86 266.071 209.746 262.614C206.804 259.331 202.083 257.677 195.705 257.677L194.271 257.701L192.566 257.677C186.188 257.677 181.467 259.331 178.525 262.614C175.435 266.071 174.322 271.28 175.236 278.093L175.435 280.29C175.435 280.513 175.459 280.759 175.459 280.982C175.459 292.955 165.694 302.707 153.705 302.707C153.507 302.707 153.05 302.707 152.853 302.707L152.247 302.707C152.197 302.707 152.123 302.707 151.901 302.707C139.911 302.707 130.147 292.955 130.147 280.982C130.147 280.759 130.147 280.513 130.171 280.29L130.369 278.093C131.284 271.28 130.196 266.071 127.081 262.614C124.14 259.331 119.418 257.677 113.041 257.677L111.476 257.677L109.877 257.677C103.499 257.677 98.7774 259.331 95.8357 262.614C92.7457 266.071 91.6326 271.28 92.5473 278.093L92.7457 280.29C92.7457 280.537 92.7698 280.759 92.7698 280.982C92.7698 292.955 83.0052 302.707 71.0159 302.707C59.0266 302.707 49.2628 292.955 49.2628 280.982C49.2628 269.527 58.0878 260.022 69.3849 259.232L71.5847 259.257C78.4817 259.454 83.5248 257.776 86.6395 254.344C89.7296 250.888 90.8419 245.703 89.9272 238.865L89.7545 236.767C89.7297 236.495 89.7296 236.224 89.7296 235.952C89.7296 223.979 99.4942 214.227 111.483 214.227C123.473 214.227 133.237 223.979 133.237 235.952C133.237 236.224 133.237 236.495 133.212 236.767L133.039 238.865C132.124 245.679 133.213 250.888 136.327 254.344C139.417 257.8 144.509 259.43 151.381 259.257L152.148 259.232L152.836 259.232L153.606 259.232L154.324 259.232C161.221 259.43 166.263 257.751 169.378 254.319C172.468 250.863 173.58 245.679 172.665 238.84L172.493 236.742C172.493 236.47 172.468 236.199 172.468 235.927C172.468 223.954 182.232 214.203 194.222 214.203C206.211 214.203 215.976 223.954 215.976 235.927C215.976 236.199 215.975 236.47 215.951 236.742L215.778 238.84C214.863 245.654 215.976 250.863 219.066 254.319C222.156 257.776 227.248 259.43 234.12 259.232L236.271 259.306C247.544 260.121 256.442 269.527 256.442 280.982C256.319 292.955 246.58 302.707 234.565 302.707ZM214.814 276.044L214.69 278.266C214.542 279.303 214.492 280.167 214.492 280.957C214.492 292.017 223.491 301.003 234.565 301.003C245.64 301.003 254.638 292.017 254.638 280.957C254.638 269.897 245.64 260.911 234.565 260.911C234.467 260.911 234.228 260.911 234.151 260.911L231.821 260.911C225.517 260.713 220.771 258.862 217.681 255.43C214.591 251.974 213.256 247.037 213.751 240.741L213.948 238.618C214.097 237.581 214.146 236.742 214.146 235.927C214.146 224.867 205.148 215.881 194.074 215.881C182.999 215.881 174.001 224.867 174.001 235.927C174.001 236.742 174.075 237.606 174.198 238.618L174.396 240.741C174.89 247.037 173.58 251.974 170.466 255.43C167.376 258.887 162.604 260.713 156.276 260.911L153.854 260.936C153.716 260.936 153.334 260.936 153.087 260.936L152.713 260.936L152.321 260.936C152.197 260.936 151.616 260.936 151.555 260.936L149.083 260.911C142.779 260.713 138.033 258.862 134.943 255.43C131.853 251.974 130.517 247.037 131.012 240.741L131.21 238.618C131.359 237.581 131.408 236.742 131.408 235.927C131.408 224.867 122.41 215.881 111.335 215.881C100.26 215.881 91.2618 224.867 91.2618 235.927C91.2618 236.742 91.3366 237.606 91.4602 238.618L91.6578 240.741C92.1522 247.037 90.8421 251.974 87.7274 255.43C84.6374 258.887 79.8662 260.713 73.5379 260.911L71.1155 260.936C71.0166 260.936 70.9667 260.936 70.8679 260.936C59.7932 260.936 50.77 269.897 50.77 280.957C50.77 292.017 59.7685 301.003 70.8431 301.003C81.9178 301.003 90.9162 292.017 90.9162 280.957C90.9162 280.142 90.8422 279.303 90.7186 278.266L90.496 276.044C90.0264 269.798 91.3612 264.91 94.4265 261.479C97.5165 258.022 102.288 256.196 108.616 255.998L111.038 255.998L111.557 255.998L113.98 255.998C120.308 256.196 125.079 258.022 128.169 261.479C131.259 264.91 132.569 269.798 132.1 276.044L131.877 278.266C131.729 279.303 131.68 280.167 131.68 280.957C131.68 292.017 140.678 301.003 151.753 301.003C151.926 301.003 152.134 301.003 152.247 301.003L152.626 301.003L153.076 301.003C153.249 301.003 153.384 301.003 153.557 301.003C164.632 301.003 173.63 292.017 173.63 280.957C173.63 280.142 173.555 279.278 173.432 278.266L173.209 276.044C172.74 269.798 174.075 264.91 177.14 261.479C180.231 258.022 185.001 256.196 191.329 255.998L193.752 255.998C193.905 255.998 194.192 255.998 194.271 255.998L196.694 255.998C203.022 256.196 207.793 258.022 210.883 261.479C213.973 264.91 215.283 269.798 214.814 276.044Z" fill="#FFA6A6" stroke="#FFA6A6" stroke-width="4.53957"/>
<path d="M234.565 3.00001C222.576 3.00001 212.812 12.7516 212.812 24.7249C212.812 24.9471 212.811 25.194 212.836 25.4162L213.034 27.6133C213.949 34.427 212.86 39.636 209.746 43.0922C206.804 46.3756 202.083 48.0297 195.705 48.0297L194.271 48.0051L192.566 48.0297C186.188 48.0297 181.467 46.3756 178.525 43.0922C175.435 39.636 174.322 34.427 175.236 27.6133L175.435 25.4162C175.435 25.194 175.459 24.9471 175.459 24.7249C175.459 12.7516 165.694 3.00002 153.705 3.00002C153.507 3.00002 153.05 3.00002 152.853 3.00002L152.247 3.00002C152.197 3.00002 152.123 3.00002 151.9 3.00002C139.911 3.00002 130.147 12.7516 130.147 24.725C130.147 24.9471 130.147 25.194 130.171 25.4162L130.369 27.6133C131.284 34.427 130.196 39.636 127.081 43.0922C124.14 46.3756 119.418 48.0297 113.041 48.0297L111.476 48.0297L109.877 48.0297C103.499 48.0297 98.7774 46.3756 95.8357 43.0922C92.7457 39.636 91.6326 34.427 92.5473 27.6133L92.7457 25.4162C92.7457 25.1693 92.7698 24.9471 92.7698 24.725C92.7698 12.7516 83.0052 3.00002 71.0159 3.00003C59.0266 3.00003 49.2627 12.7516 49.2627 24.725C49.2627 36.1799 58.0877 45.6844 69.3849 46.4744L71.5847 46.4497C78.4817 46.2522 83.5248 47.9309 86.6395 51.3624C89.7296 54.8186 90.8419 60.0031 89.9272 66.8415L89.7545 68.9399C89.7297 69.2114 89.7296 69.4829 89.7296 69.7545C89.7296 81.7278 99.4942 91.4792 111.483 91.4792C123.473 91.4792 133.237 81.7278 133.237 69.7545C133.237 69.4829 133.237 69.2114 133.212 68.9399L133.039 66.8415C132.124 60.0278 133.213 54.8186 136.327 51.3624C139.417 47.9062 144.509 46.2769 151.381 46.4497L152.148 46.4744L152.836 46.4744L153.606 46.4744L154.324 46.4744C161.221 46.2769 166.263 47.9555 169.378 51.3871C172.468 54.8433 173.58 60.0278 172.665 66.8661L172.493 68.9645C172.493 69.2361 172.468 69.5076 172.468 69.7792C172.468 81.7525 182.232 91.5039 194.222 91.5039C206.211 91.5039 215.976 81.7525 215.976 69.7792C215.976 69.5076 215.975 69.2361 215.951 68.9645L215.778 66.8661C214.863 60.0525 215.976 54.8433 219.066 51.3871C222.156 47.9308 227.248 46.2769 234.12 46.4743L236.271 46.4003C247.544 45.5856 256.442 36.1798 256.442 24.7249C256.319 12.7516 246.58 3.00001 234.565 3.00001ZM214.814 29.6623L214.69 27.4406C214.542 26.4037 214.492 25.5396 214.492 24.7496C214.492 13.6897 223.491 4.70344 234.565 4.70344C245.64 4.70344 254.638 13.6897 254.638 24.7496C254.638 35.8095 245.64 44.7956 234.565 44.7956C234.467 44.7956 234.228 44.7956 234.151 44.7956L231.821 44.7956C225.517 44.9931 220.771 46.8446 217.681 50.2762C214.591 53.7324 213.256 58.6699 213.751 64.9651L213.948 67.0882C214.097 68.1251 214.146 68.9645 214.146 69.7792C214.146 80.8391 205.148 89.8253 194.074 89.8253C182.999 89.8253 174.001 80.8391 174.001 69.7792C174.001 68.9645 174.075 68.1004 174.198 67.0882L174.396 64.9651C174.89 58.6699 173.58 53.7324 170.466 50.2762C167.376 46.82 162.604 44.9931 156.276 44.7956L153.854 44.7709C153.716 44.7709 153.334 44.7709 153.087 44.7709L152.713 44.7709L152.321 44.7709C152.197 44.7709 151.616 44.7709 151.555 44.7709L149.083 44.7956C142.779 44.9931 138.033 46.8447 134.943 50.2762C131.853 53.7324 130.517 58.6699 131.012 64.9651L131.21 67.0882C131.359 68.1251 131.408 68.9645 131.408 69.7792C131.408 80.8391 122.41 89.8253 111.335 89.8253C100.26 89.8253 91.2618 80.8391 91.2618 69.7792C91.2618 68.9645 91.3366 68.1004 91.4602 67.0882L91.6578 64.9652C92.1522 58.6699 90.8421 53.7324 87.7274 50.2762C84.6374 46.82 79.8662 44.9931 73.5379 44.7956L71.1155 44.7709C71.0166 44.7709 70.9667 44.7709 70.8679 44.7709C59.7932 44.7709 50.77 35.8095 50.77 24.7496C50.77 13.6897 59.7685 4.70346 70.8431 4.70345C81.9178 4.70345 90.9162 13.6897 90.9162 24.7496C90.9162 25.5643 90.8422 26.4037 90.7186 27.4406L90.496 29.6623C90.0264 35.9082 91.3612 40.7964 94.4265 44.2279C97.5165 47.6841 102.288 49.511 108.616 49.7085L111.038 49.7085L111.557 49.7085L113.98 49.7085C120.308 49.511 125.079 47.6841 128.169 44.2279C131.259 40.7964 132.569 35.9082 132.1 29.6623L131.877 27.4406C131.729 26.4037 131.68 25.5396 131.68 24.7496C131.68 13.6897 140.678 4.70345 151.753 4.70345C151.926 4.70345 152.134 4.70345 152.247 4.70345L152.626 4.70345L153.076 4.70345C153.249 4.70345 153.384 4.70345 153.557 4.70345C164.632 4.70344 173.629 13.6897 173.629 24.7496C173.629 25.5643 173.555 26.4284 173.432 27.4406L173.209 29.6623C172.74 35.9082 174.075 40.7964 177.14 44.2279C180.231 47.6841 185.001 49.511 191.329 49.7085L193.752 49.7085C193.905 49.7085 194.192 49.7085 194.271 49.7085L196.694 49.7085C203.022 49.511 207.793 47.6841 210.883 44.2279C213.973 40.7964 215.283 35.9082 214.814 29.6623Z" fill="#7B56FF" stroke="#7B56FF" stroke-width="4.53957"/>
<circle cx="153.86" cy="153.86" r="100.66" fill="#170952"/>
<path d="M181.739 151.729C181.739 147.235 185.335 143.639 189.83 143.639C194.325 143.639 197.92 147.235 197.92 151.729C197.92 156.224 194.325 159.82 189.83 159.82C185.335 159.82 181.739 156.074 181.739 151.729Z" fill="#F1EBE5"/>
<path d="M230.034 170.602C229.736 173.131 229.439 175.66 228.695 178.04C226.464 186.52 221.556 194.256 213.525 198.57C202.519 204.223 189.43 202.14 178.424 197.826C169.352 204.223 169.352 204.223 169.352 204.223C167.269 205.562 164.592 203.331 165.782 201.099C163.254 201.545 162.51 199.165 163.254 197.231C161.171 198.868 159.387 195.892 160.577 194.107C161.32 192.917 162.51 191.578 163.402 190.537C150.612 183.247 139.011 174.321 127.261 165.544C133.954 169.709 160.725 183.396 167.269 186.222C174.111 189.198 180.953 192.173 188.092 193.81C194.041 195.148 201.626 195.892 207.129 192.471C212.186 189.495 214.12 183.396 214.863 177.891C216.648 165.99 212.484 152.601 206.237 142.485C199.693 131.922 188.984 122.401 176.788 119.277C172.326 118.087 167.864 118.087 163.7 118.831C154.032 120.467 145.257 126.418 138.564 133.856C128.897 144.568 122.204 157.808 116.106 170.899C111.942 179.677 106.141 201.099 92.4579 192.619C86.3599 188.751 82.4929 182.057 79.8157 175.511C76.8411 168.519 74.7589 159.147 76.6924 151.56C80.8568 135.642 103.166 149.774 110.752 154.833C110.306 154.684 92.4578 146.502 85.9137 152.899C82.9391 155.874 83.0878 161.23 83.534 165.097C84.4264 172.09 87.8472 182.503 94.3913 186.371C102.869 191.28 107.182 175.957 109.413 170.602C113.131 161.527 116.701 152.452 120.865 143.526C125.476 133.708 130.979 124.038 138.564 116.153C136.928 114.219 134.549 111.839 134.4 109.31C134.102 106.483 136.928 103.359 139.903 104.847C136.482 100.979 141.093 95.1769 145.555 97.4085C143.473 94.1356 146.745 89.9701 150.165 90.1189C152.099 90.1189 154.032 91.7553 155.52 92.7967C159.387 95.3257 163.254 98.0035 167.269 100.533C204.303 94.7306 233.306 136.832 230.034 170.602Z" fill="#F1EBE5"/>
</svg>
